<svg xmlns="http://www.w3.org/2000/svg" viewBox="0 0 144 144"><title>pin</title><g style="opacity:0"><path d="M140,4V140H4V4H140m4-4H0V144H144V0Z"/></g><polygon points="39.88 88 72.14 39.6 104.4 88 39.88 88" style="fill:#ddd"/><path d="M72.14,43.21,100.67,86H43.61L72.14,43.21m0-7.21-36,54h72l-36-54Z"/><line x1="18.14" y1="90" x2="126.14" y2="90" style="fill:none;stroke:#000;stroke-linecap:round;stroke-miterlimit:10;stroke-width:4px"/><circle cx="72.14" cy="27" r="7"/><path d="M72.14,22a5,5,0,1,1-5,5,5,5,0,0,1,5-5m0-4a9,9,0,1,0,9,9,9,9,0,0,0-9-9Z"/><line x1="35.96" y1="90" x2="18" y2="126.15" style="fill:none;stroke:#000;stroke-linecap:round;stroke-miterlimit:10;stroke-width:4px"/><line x1="63" y1="90" x2="45.04" y2="126.15" style="fill:none;stroke:#000;stroke-linecap:round;stroke-miterlimit:10;stroke-width:4px"/><line x1="90" y1="90" x2="72.04" y2="126.15" style="fill:none;stroke:#000;stroke-linecap:round;stroke-miterlimit:10;stroke-width:4px"/><line x1="117" y1="90" x2="99.04" y2="126.15" style="fill:none;stroke:#000;stroke-linecap:round;stroke-miterlimit:10;stroke-width:4px"/></svg>