<svg xmlns="http://www.w3.org/2000/svg" viewBox="0 0 144 144"><title>roller</title><g style="opacity:0"><path d="M140,4V140H4V4H140m4-4H0V144H144V0Z"/></g><polygon points="39.45 97 72 40.03 104.55 97 39.45 97" style="fill:#ddd"/><path d="M72,44.06,101.11,95H42.89L72,44.06M72,36,36,99h72L72,36Z"/><line x1="18" y1="99" x2="126" y2="99" style="fill:none;stroke:#000;stroke-linecap:round;stroke-miterlimit:10;stroke-width:4px"/><circle cx="72" cy="27" r="7"/><path d="M72,22a5,5,0,1,1-5,5,5,5,0,0,1,5-5m0-4a9,9,0,1,0,9,9,9,9,0,0,0-9-9Z"/><circle cx="31.5" cy="112.5" r="11.5" style="fill:#ddd"/><path d="M31.5,103a9.5,9.5,0,1,1-9.5,9.5,9.51,9.51,0,0,1,9.5-9.5m0-4A13.5,13.5,0,1,0,45,112.5,13.49,13.49,0,0,0,31.5,99Z"/><circle cx="58.5" cy="112.5" r="11.5" style="fill:#ddd"/><path d="M58.5,103a9.5,9.5,0,1,1-9.5,9.5,9.51,9.51,0,0,1,9.5-9.5m0-4A13.5,13.5,0,1,0,72,112.5,13.49,13.49,0,0,0,58.5,99Z"/><circle cx="85.5" cy="112.5" r="11.5" style="fill:#ddd"/><path d="M85.5,103a9.5,9.5,0,1,1-9.5,9.5,9.51,9.51,0,0,1,9.5-9.5m0-4A13.5,13.5,0,1,0,99,112.5,13.49,13.49,0,0,0,85.5,99Z"/><circle cx="112.5" cy="112.5" r="11.5" style="fill:#ddd"/><path d="M112.5,103a9.5,9.5,0,1,1-9.5,9.5,9.51,9.51,0,0,1,9.5-9.5m0-4A13.5,13.5,0,1,0,126,112.5,13.49,13.49,0,0,0,112.5,99Z"/></svg>